<?xml version="1.0" encoding="UTF-8"?>
<svg width="69px" height="84px" viewBox="0 0 69 84" version="1.1" xmlns="http://www.w3.org/2000/svg" xmlns:xlink="http://www.w3.org/1999/xlink">
    <title>Group</title>
    <g id="Page-1" stroke="none" stroke-width="1" fill="none" fill-rule="evenodd">
        <g id="Group" transform="translate(-0.000000, 1.000000)" stroke="#FF9A02">
            <path d="M67.2621962,38.1998741 L67.2621962,61.052542 L35.5440717,81.1867807 L34.7760773,57.1190536 L67.2621962,38.1998741 Z" id="Rectangle" stroke-width="1.5" fill="#FF9A02"></path>
            <polyline id="Path" stroke-width="1.5" points="34.1436796 38.5056965 34.1436796 48.8551293 8.10945823 33.834849 8.10945823 40.3551698 34.1436796 56.7992951 34.1436796 81.2364352 0.964165662 61.5812266 0.964165662 52.1404207 25.9374355 67.870441 25.9374355 59.5823806 0.964165662 44.9898067"></polyline>
            <path d="M35.2071652,0.866403942 L66.5473912,19.267076 L33.4353617,39.3017011 L1.65120843,19.9850739 L35.2071652,0.866403942 Z" id="Rectangle" stroke-width="1.5"></path>
            <path d="" id="Path-3" stroke-width="1.5"></path>
            <line x1="59.2926766" y1="33.0003767" x2="67.4841855" y2="37.5643999" id="Path-5" stroke-width="1.5"></line>
            <path d="M34.6627411,0.544805229 C45.5657976,6.89383062 56.468854,13.242856 67.3719105,19.5918814" id="Path-9" stroke-width="1.5"></path>
            <path d="M67.2232795,19.5372904 C67.3939594,19.6149929 67.5646392,19.6926954 67.7353191,19.7703979" id="Path-10" stroke-width="1.5"></path>
            <path d="M67.2621962,20.5558064 L67.2621962,29.2594768 L35.5537455,48.8110896 L35.2265455,39.0339767 L67.2621962,20.5558064 Z" id="Rectangle" stroke-width="1.5" fill="#FF9A02"></path>
            <path d="M4.95495543,48.3799418 L1.49144886,51.2229048 L1.03748258,50.8663258 L4.95495543,48.3799418 Z" id="Rectangle"></path>
            <path d="M0.5,20.5817145 L0.939251933,44.9708677 L0.5,45.2439875 L0.5,20.5817145 Z" id="Rectangle" transform="translate(0.719626, 33.048206) scale(-1, 1) translate(-0.719626, -33.048206) "></path>
            <path d="M34.878622,57.0066704 C34.8103797,65.2757033 34.7421374,73.5447363 34.6738951,81.8137693" id="Path-2" stroke-width="1.5"></path>
            <path d="M34.5697075,39.6622688 C34.4332229,42.6622688 34.9127432,46.4365376 34.7762586,49.4365376" id="Path-2-Copy"></path>
            <path d="M48.4513227,31.6044698 C54.7208736,27.706323 60.9904246,23.8081761 67.2599755,19.9100293" id="Path-4" stroke-width="1.5"></path>
        </g>
    </g>
</svg>